<svg version="1.1" id="Layer_1" xmlns="http://www.w3.org/2000/svg" xmlns:xlink="http://www.w3.org/1999/xlink" x="0px" y="0px"
	 width="100%" viewBox="0 0 820 760" enable-background="new 0 0 820 760" xml:space="preserve">
<path fill="#050505" opacity="1.000000" stroke="none" 
	d="
M0.999994,557.000000 
	C1.000000,371.702484 1.000000,186.404938 1.000000,1.053704 
	C274.244720,1.053704 547.489441,1.053704 820.867065,1.053704 
	C820.867065,254.333282 820.867065,507.666626 820.867065,761.000000 
	C804.249329,761.000000 787.585876,761.000000 770.467224,760.619812 
	C775.482605,750.743530 773.962219,740.307861 773.979675,730.106934 
	C774.034607,697.964844 773.560181,665.813354 774.234192,633.685242 
	C774.476013,622.156738 761.662781,609.748169 750.479370,609.783752 
	C638.565613,610.139648 526.650330,610.046997 414.735565,609.955017 
	C395.458588,609.939148 376.181183,609.370178 356.907257,608.917664 
	C355.590851,608.886841 354.301971,607.684204 353.258667,606.783447 
	C361.968201,604.052917 367.793762,598.507996 370.300354,590.253662 
	C372.011597,584.618469 373.050323,578.559143 373.104675,572.677612 
	C373.378571,543.031006 373.235321,513.380615 373.218231,483.731506 
	C373.217224,481.986237 373.039307,480.241089 372.944183,478.504242 
	C362.944824,478.504242 353.547455,478.504242 343.895874,478.504242 
	C343.895874,480.650208 343.895874,482.469940 343.895874,484.289703 
	C343.895874,511.939972 343.917877,539.590332 343.860352,567.240479 
	C343.854858,569.877930 343.520569,572.545166 343.043427,575.144348 
	C342.237640,579.533447 339.773438,581.934814 334.966003,580.765015 
	C334.550232,580.118652 334.168549,579.768127 333.786865,579.417603 
	C333.524597,579.905457 333.262360,580.393372 332.611633,580.913330 
	C330.918060,580.513794 329.613007,580.082214 328.120544,579.588684 
	C325.110992,587.466736 322.263214,594.921326 319.333282,602.591003 
	C323.189728,604.484192 326.620972,606.168640 329.770203,608.171204 
	C328.188721,608.659485 326.890198,608.971252 325.589722,608.979614 
	C270.376801,609.336670 215.163742,609.678589 159.950546,609.990479 
	C148.300781,610.056274 136.644684,610.205627 125.003273,609.887024 
	C120.997231,609.777405 116.843842,608.847961 113.079407,607.435669 
	C105.788841,604.700500 98.825462,601.096680 91.545692,598.328308 
	C81.385368,594.464600 71.756294,588.765503 60.341618,588.844971 
	C59.403095,588.851501 58.346741,587.117493 57.525227,586.053223 
	C54.339905,581.926819 51.989258,576.623230 47.906883,573.848633 
	C41.983498,569.822815 35.003227,567.101868 28.156328,564.747437 
	C19.267254,561.690796 10.066556,559.540466 0.999994,557.000000 
M341.483765,445.623291 
	C341.594727,445.934448 341.745544,446.237518 341.810883,446.557953 
	C343.904175,456.827972 353.403198,462.799622 363.360168,460.098022 
	C372.911407,457.506470 378.375702,447.670654 375.439240,438.355408 
	C372.375122,428.635223 361.722198,423.476746 352.310486,427.270050 
	C345.700226,429.934204 342.634949,435.420868 340.395233,442.097748 
	C338.358612,443.615601 338.838104,444.523651 341.483765,445.623291 
M449.570404,402.999390 
	C449.302795,403.000000 449.035248,402.996582 448.378510,402.246521 
	C446.464600,395.991699 444.403076,389.776672 442.701263,383.464661 
	C441.893860,380.469879 440.475861,380.307098 437.850006,380.876495 
	C435.445923,378.548431 433.430542,378.764648 431.081696,381.582825 
	C430.077881,379.399200 428.388519,377.272339 428.202179,375.021027 
	C427.696594,368.913452 427.799438,362.753448 427.717651,356.613495 
	C427.663605,352.558563 427.707397,348.502350 427.707397,344.132874 
	C434.061432,344.132874 439.504639,344.132874 445.261230,344.132874 
	C445.261230,336.607483 445.261230,329.419342 445.261230,321.801331 
	C439.592590,321.801331 434.290192,321.801331 428.755096,321.444214 
	C428.558563,321.227051 428.319092,321.079742 427.743683,320.104980 
	C427.743683,310.354584 427.743683,300.604156 427.743683,290.749756 
	C417.555420,290.749756 408.020294,290.749756 397.862274,290.749756 
	C397.862274,300.758484 397.862274,310.379181 397.279083,320.081482 
	C396.852356,320.658478 396.425659,321.235474 395.113129,321.966705 
	C392.013275,321.656464 388.788635,321.789734 385.835297,320.958801 
	C373.434021,317.469696 362.611206,319.719025 353.449402,329.018433 
	C352.499329,329.982727 351.345612,330.746338 349.345825,332.363861 
	C349.345825,328.209412 349.345825,325.323364 349.345825,322.233337 
	C339.273743,322.233337 329.718964,322.233337 320.188507,322.233337 
	C320.188507,350.337677 320.188507,378.185913 320.188507,406.078400 
	C329.940826,406.078400 339.373993,406.078400 349.001587,406.078400 
	C349.082275,404.514099 349.207245,403.203552 349.208649,401.892883 
	C349.222687,388.742615 349.034027,375.589020 349.276855,362.443237 
	C349.453430,352.886078 356.017303,343.885223 366.820526,345.196472 
	C371.782806,345.798706 376.666687,347.046722 381.899261,348.062714 
	C382.674927,346.831909 383.882172,344.916199 385.439148,343.002045 
	C385.439148,343.002045 385.788879,343.002045 386.350769,343.685486 
	C390.107391,343.964905 393.864014,344.244354 398.099365,344.559387 
	C398.099365,347.731720 397.995789,350.858368 398.117920,353.976166 
	C398.559967,365.259430 399.077820,376.539673 398.905396,388.157776 
	C399.367706,389.069458 399.830017,389.981140 400.791168,391.374756 
	C404.117035,401.515930 411.281921,406.896454 421.665375,408.561676 
	C430.475220,409.974518 438.701416,407.911774 447.614044,404.984039 
	C448.390961,404.989349 449.167908,404.994659 450.304901,405.689331 
	C460.026825,405.689331 469.748749,405.689331 479.424377,405.689331 
	C479.424377,377.879425 479.424377,350.029236 479.424377,322.331818 
	C469.464813,322.331818 459.902710,322.331818 450.207275,322.331818 
	C450.207275,326.501556 450.217987,330.313385 450.205566,334.125153 
	C450.130615,357.083405 450.050385,380.041687 449.570404,402.999390 
M199.081314,485.127228 
	C198.251221,482.813690 201.121765,478.551666 196.612900,478.314178 
	C187.728485,477.846252 178.802032,478.176300 169.793701,478.176300 
	C169.793701,506.792114 169.793701,534.724060 169.793701,562.567627 
	C179.601318,562.567627 189.150162,562.567627 199.061279,562.567627 
	C199.061279,547.523010 199.002762,532.882263 199.081726,518.242249 
	C199.134964,508.375580 205.872574,501.279999 215.641739,501.572815 
	C220.942245,501.731720 226.198166,503.378052 231.924850,504.436768 
	C235.463959,497.177155 239.287598,489.333893 243.650742,480.383972 
	C238.740662,478.852264 234.335571,476.951782 229.738663,476.147034 
	C217.960159,474.085144 208.737503,479.206146 200.175659,486.583130 
	C199.863617,486.389709 199.551575,486.196320 199.081314,485.127228 
M307.160004,252.861755 
	C308.927887,254.593216 310.299561,254.669601 311.586823,251.464401 
	C324.831665,248.905945 335.482880,242.620865 342.624664,230.289398 
	C335.338165,226.632385 328.570526,223.235794 321.508575,219.691483 
	C315.645630,227.007797 308.059540,229.660217 298.940002,228.922241 
	C289.886841,228.189651 283.161530,221.609451 283.556580,212.822739 
	C283.742767,212.687500 283.882660,212.514801 284.902222,212.131760 
	C304.489105,212.131760 324.075958,212.131760 343.944397,212.131760 
	C344.819305,197.455246 342.356171,184.537903 331.525604,174.661072 
	C319.268524,163.483353 304.399719,160.606491 288.711578,164.056259 
	C254.574539,171.562851 241.439850,210.242630 262.428223,235.527069 
	C269.484924,244.028183 278.610199,248.967209 289.092010,252.625229 
	C290.061676,252.479462 291.031311,252.333710 292.815735,252.071289 
	C297.543488,252.113525 302.271210,252.155746 307.160004,252.861755 
M641.501648,320.544861 
	C637.354370,322.703735 633.207153,324.862610 628.383667,327.008667 
	C627.482056,326.999664 626.580383,326.990662 625.390442,326.104645 
	C625.296509,324.828156 625.202576,323.551697 625.110535,322.301270 
	C615.258728,322.301270 605.695923,322.301270 595.984314,322.301270 
	C595.984314,349.918549 595.982605,377.215363 595.998718,404.512177 
	C595.999023,404.971954 596.216492,405.431580 596.354370,405.977539 
	C605.982910,405.977539 615.524048,405.977539 625.357361,405.977539 
	C625.357361,389.987885 625.252563,374.356567 625.397766,358.727570 
	C625.480835,349.778076 633.760742,342.041565 642.659363,342.191559 
	C651.033081,342.332733 657.114136,349.101440 657.162842,358.573547 
	C657.235657,372.728577 657.182129,386.884277 657.182312,401.039673 
	C657.182312,402.643982 657.182251,404.248291 657.182251,406.046875 
	C667.391113,406.046875 676.961670,406.046875 686.762390,406.046875 
	C686.762390,386.318665 687.223816,366.865479 686.582153,347.448792 
	C686.221008,336.521973 679.971680,328.621521 669.903381,323.914948 
	C662.222534,320.324432 654.181702,318.959686 645.091492,319.075317 
	C644.061035,319.394440 643.030518,319.713562 641.501648,320.544861 
M94.224083,250.935547 
	C94.750183,251.270477 95.273293,251.891739 95.802834,251.897278 
	C103.373085,251.976440 110.945114,252.029190 118.513847,251.908447 
	C119.351883,251.895065 120.172287,250.776535 121.847168,249.954498 
	C122.254791,248.169312 123.013977,246.384888 123.017883,244.598831 
	C123.089317,211.962097 123.070114,179.325165 123.070168,146.688278 
	C123.070168,144.930710 123.070168,143.173157 123.070168,140.930817 
	C134.114059,140.930817 144.503616,140.930817 154.700562,140.930817 
	C154.700562,131.694061 154.700562,122.955124 154.700562,114.246902 
	C122.823967,114.246902 91.283791,114.246902 59.551769,114.246902 
	C59.551769,123.318375 59.551769,132.044266 59.551769,141.291183 
	C70.426117,141.291183 80.994652,141.291183 91.837059,141.291183 
	C91.837059,143.621460 91.837051,145.429901 91.837059,147.238342 
	C91.837143,179.875229 91.805244,212.512238 91.929321,245.148651 
	C91.935699,246.826736 93.278549,248.499725 94.224083,250.935547 
M495.945709,334.106079 
	C492.741119,340.777771 489.536530,347.449493 485.709290,354.107910 
	C485.281738,354.437958 484.854187,354.767975 484.426605,355.097992 
	C484.904236,355.398651 485.381897,355.699341 485.968811,356.928802 
	C485.922180,361.952332 485.875580,366.975861 485.209961,372.124969 
	C485.759918,373.750183 486.309875,375.375397 487.165039,377.684479 
	C496.668579,408.968201 529.798401,416.852661 551.076904,402.142639 
	C552.414856,403.095001 553.752747,404.047394 555.525391,405.611816 
	C565.195251,405.611816 574.865112,405.611816 584.731262,405.611816 
	C584.731262,378.317413 584.732971,351.046082 584.717163,323.774719 
	C584.716919,323.314484 584.504639,322.854370 584.288940,321.978424 
	C576.181824,321.978424 568.071228,321.921478 559.962646,322.024750 
	C558.267944,322.046356 556.580811,322.659302 554.186279,323.144318 
	C553.392090,324.312927 552.597961,325.481506 551.138184,326.331940 
	C546.742737,324.265625 542.347351,322.199310 537.859863,319.384430 
	C536.321228,319.433868 534.782593,319.483276 532.439941,319.720337 
	C528.293579,319.750946 524.147217,319.781525 519.896240,319.244843 
	C519.552673,318.976288 519.209167,318.707703 518.865601,318.439148 
	C518.577026,318.963531 518.288513,319.487915 517.445496,320.499146 
	C512.126587,323.051910 506.807648,325.604645 500.658478,328.082642 
	C497.057800,328.138092 495.790985,330.134247 495.945709,334.106079 
M206.744904,186.029007 
	C214.866898,188.162048 219.120834,193.396118 219.170837,201.755051 
	C219.258484,216.406494 219.145050,231.059311 219.276489,245.710114 
	C219.289886,247.202484 220.398712,248.685013 221.223511,250.933044 
	C221.748840,251.268616 222.270981,251.890671 222.799973,251.896545 
	C230.037872,251.976974 237.277710,252.031509 244.513962,251.908386 
	C245.352554,251.894104 246.172379,250.777618 247.863602,249.989548 
	C248.222809,249.378311 248.894485,248.767761 248.895859,248.155701 
	C248.937500,229.505463 249.228546,210.847382 248.774658,192.207718 
	C248.523865,181.908401 243.539307,173.701309 234.227051,168.769669 
	C218.610168,160.499222 203.462555,160.258301 188.482590,172.044464 
	C188.217056,172.031693 187.951523,172.018936 187.393814,171.166916 
	C187.393814,150.395370 187.393814,129.623840 187.393814,108.624451 
	C177.320694,108.624451 167.896362,108.624451 158.221771,108.624451 
	C158.130753,109.773979 157.989243,110.728714 157.989014,111.683479 
	C157.978210,156.674469 157.971970,201.665466 158.022430,246.656387 
	C158.023758,247.827682 158.659393,248.998276 159.222916,250.930649 
	C159.748138,251.266922 160.270355,251.890640 160.799057,251.896210 
	C168.370407,251.975876 175.943527,252.028946 183.513367,251.908463 
	C184.351547,251.895126 185.172134,250.776474 186.837204,249.793442 
	C187.017960,248.000778 187.349762,246.208588 187.355453,244.415375 
	C187.399292,230.605087 187.329285,216.794342 187.398193,202.984268 
	C187.443146,193.971954 193.796417,187.208694 203.117188,186.782257 
	C204.078293,186.571640 205.039398,186.361008 206.744904,186.029007 
M164.718796,472.911957 
	C165.014450,472.604065 165.310104,472.296173 165.605774,471.988251 
	C165.150055,471.658386 164.694321,471.328491 164.130585,470.082977 
	C163.826202,449.114716 156.033478,436.547760 138.718124,430.426910 
	C133.155914,428.460724 127.083038,427.183594 121.203049,427.015442 
	C104.395866,426.534760 87.567780,426.780151 70.747887,426.764862 
	C69.967552,426.764160 69.186996,427.004456 68.328514,427.145264 
	C68.328514,472.484070 68.328514,517.521606 68.328514,562.723694 
	C78.663391,562.723694 88.721161,562.723694 99.346207,562.723694 
	C99.346207,545.946045 99.346207,529.417969 99.346207,512.106384 
	C107.712532,512.106384 115.528954,512.416687 123.313179,512.047852 
	C146.041229,510.970734 162.094238,495.493225 164.718796,472.911957 
M392.816467,486.870972 
	C392.264374,487.742401 391.712280,488.613831 390.885162,490.063110 
	C374.237091,506.396515 374.303101,533.415100 389.724121,549.968506 
	C402.598206,563.788025 418.592804,567.380920 436.574371,564.451172 
	C450.191101,562.232544 460.972687,555.619507 468.643677,543.139404 
	C461.848724,539.718811 455.433899,536.363159 448.865967,533.340088 
	C448.026184,532.953552 446.055847,533.980286 445.175171,534.896423 
	C439.772461,540.516724 433.083069,542.170410 425.605194,541.751831 
	C415.910248,541.209106 409.218903,534.815918 409.515167,525.793762 
	C409.736816,525.623779 409.895203,525.407532 410.911682,524.954346 
	C430.458618,524.954346 450.005554,524.954346 469.300629,524.954346 
	C472.440491,544.113892 483.348175,556.365173 500.389801,562.603333 
	C515.428833,568.108459 530.238037,565.757324 544.631104,557.901489 
	C541.755615,551.986572 539.048584,546.730530 536.640808,541.340698 
	C535.335754,538.419250 534.274353,537.606201 530.787292,538.995972 
	C522.892395,542.142578 514.815369,543.078125 507.934143,535.495178 
	C506.904144,534.683228 505.874146,533.871277 504.241058,532.706970 
	C500.547272,527.083008 499.015167,520.863403 501.273621,514.529602 
	C502.449188,511.232819 505.372986,508.539520 507.593445,505.639709 
	C511.359772,500.721100 516.317932,499.053345 522.085571,500.519318 
	C525.507446,501.389038 528.939758,502.446564 532.427917,502.772614 
	C537.556763,503.251984 536.254089,497.459106 538.947754,495.451874 
	C539.150696,495.300720 539.543396,495.404236 539.853943,495.400665 
	C539.970764,497.036346 540.087585,498.672028 540.247437,500.910461 
	C544.437805,500.910461 548.501160,500.910461 552.762817,500.910461 
	C552.762817,511.499573 552.706299,521.474915 552.782776,531.449158 
	C552.833069,538.012329 552.832886,544.693848 556.270935,550.562378 
	C558.390137,554.179626 560.479187,558.571716 563.809570,560.586426 
	C575.846924,567.868347 588.504028,566.533386 600.944153,561.118958 
	C601.820740,560.737488 602.925781,559.025269 602.711609,558.280823 
	C600.622253,551.016907 598.274597,543.827332 595.985291,536.568665 
	C587.927551,540.046509 583.575684,539.265259 583.222656,533.710754 
	C582.533386,522.863892 583.020447,511.942261 583.020447,500.597229 
	C588.411560,500.597229 594.015442,500.597229 599.675354,500.597229 
	C599.675354,492.940704 599.675354,485.741943 599.675354,478.064209 
	C593.683594,478.064209 588.097961,478.064209 582.111694,478.064209 
	C582.111694,467.508453 582.111694,457.432678 582.111694,447.251282 
	C572.130127,447.251282 562.572876,447.251282 552.616333,447.251282 
	C552.616333,457.650604 552.616333,467.742645 552.616333,477.956390 
	C548.591675,478.143707 544.957153,478.251740 541.333313,478.510864 
	C539.833862,478.618042 538.134155,479.677521 536.903564,479.240112 
	C511.302429,470.140167 485.658661,478.170044 471.477112,504.053528 
	C470.358490,504.035461 469.239838,504.017365 467.719696,503.394287 
	C462.750549,489.235138 452.572998,480.677673 438.299255,477.240204 
	C421.722382,473.248077 406.459076,476.309418 392.816467,486.870972 
M174.740494,335.583649 
	C176.543320,359.002045 178.346146,382.420410 180.156387,405.935272 
	C190.794113,405.935272 200.973938,405.935272 211.632721,405.935272 
	C210.452011,394.992432 209.319550,384.496796 208.783112,374.000946 
	C209.180466,374.000641 209.577835,374.000336 210.397766,374.665039 
	C211.606964,378.440399 212.816162,382.215729 213.567444,386.341888 
	C214.066833,386.886871 214.566223,387.431854 215.652390,388.289032 
	C216.559860,389.810303 217.467331,391.331543 217.810822,393.191284 
	C218.567780,393.784119 219.324722,394.376984 220.680939,395.257050 
	C232.621628,409.757080 257.187317,414.668152 276.336548,400.923309 
	C277.180634,400.949005 278.024689,400.974701 279.080627,401.869354 
	C279.683899,403.354553 280.247437,406.112854 280.896362,406.133057 
	C289.968384,406.415985 299.052063,406.324921 308.077240,406.324921 
	C308.077240,377.853302 308.077240,350.111877 308.077240,322.261108 
	C298.251740,322.261108 288.678101,322.261108 279.079529,322.261108 
	C278.969513,324.030792 278.876740,325.522797 278.381744,327.340607 
	C278.224182,327.644562 278.066589,327.948486 277.229004,328.072510 
	C272.128632,325.446899 267.028229,322.821320 261.856232,319.437714 
	C260.323242,319.486816 258.790283,319.535919 256.453125,319.742218 
	C252.302383,319.764099 248.151657,319.785980 243.855713,319.152405 
	C242.064362,317.381805 241.269867,318.060577 240.564728,320.753571 
	C236.240616,322.748199 231.443405,324.096619 227.677505,326.853699 
	C214.206955,336.715729 208.935471,350.712982 208.480545,366.999329 
	C208.480545,366.999329 208.129654,366.999420 207.927505,366.190186 
	C205.031342,334.288147 202.135162,302.386108 199.209961,270.164307 
	C190.935562,270.164307 183.301407,270.164276 175.667252,270.164307 
	C166.182541,270.164337 166.290237,270.206024 162.900024,278.966248 
	C154.367050,301.015411 145.727310,323.023193 136.448654,345.021149 
	C135.993896,345.013947 135.539154,345.006744 134.603485,344.455231 
	C125.684792,321.275818 116.800537,298.083008 107.779617,274.943451 
	C107.086060,273.164429 105.476898,270.437714 104.212234,270.391968 
	C93.937813,270.020081 83.644043,270.182983 73.021431,270.182983 
	C69.597336,307.474670 66.221855,344.237030 62.297733,381.084015 
	C61.995239,381.384521 61.692745,381.685028 61.390232,381.985504 
	C61.833000,382.324280 62.275772,382.663025 62.751759,383.809570 
	C62.450222,386.539490 62.148685,389.269440 61.222492,392.133575 
	C61.392147,392.811615 61.561802,393.489655 61.773827,395.078949 
	C61.463223,398.661346 61.152615,402.243744 60.822006,406.056824 
	C71.503502,406.056824 81.563065,406.056824 91.967148,406.056824 
	C94.034370,380.459259 96.081642,355.108795 98.128906,329.758301 
	C98.594063,329.661926 99.059212,329.565521 99.524368,329.469116 
	C100.245117,330.747833 101.179535,331.952209 101.654488,333.316498 
	C108.499641,352.979248 115.315285,372.652466 122.069962,392.346497 
	C126.651459,405.704376 126.606430,405.562469 140.472809,405.786102 
	C144.315582,405.848053 145.900192,404.592285 147.123550,401.020935 
	C154.678879,378.964752 162.495895,356.998199 171.029114,335.000641 
	C172.099411,334.971344 173.169708,334.942017 174.740494,335.583649 
M237.746170,512.294250 
	C234.572403,531.182251 241.430542,548.058350 257.352051,557.280029 
	C276.584351,568.419312 296.772034,568.751892 316.282593,558.269348 
	C342.774170,544.036011 343.393097,511.738068 330.024445,494.921143 
	C320.236603,482.608704 307.109772,476.713715 291.551514,475.749847 
	C265.239471,474.119720 243.873489,488.291412 237.746170,512.294250 
M464.627502,304.379974 
	C476.477356,305.567871 487.632477,291.382050 480.421204,278.606018 
	C476.380676,271.447571 468.158752,268.011108 460.425385,270.200287 
	C453.014648,272.298157 447.375977,280.277069 447.845978,288.000610 
	C448.361328,296.469574 454.617218,302.872620 464.627502,304.379974 
z"/>
<path fill="#000000" opacity="1.000000" stroke="none" 
	d="
M1.000002,566.000000 
	C1.000000,564.285889 1.000000,562.571777 1.420237,560.428833 
	C3.311417,560.199402 4.857238,560.173706 6.241386,560.634033 
	C16.636272,564.091492 26.968117,567.740295 37.380856,571.141907 
	C48.127495,574.652527 54.473843,581.928101 57.148750,592.827393 
	C58.451923,598.137329 60.309513,603.316589 62.053509,608.508789 
	C62.450645,609.691162 63.383820,611.593323 64.125420,611.619751 
	C70.899857,611.861572 77.686470,611.761902 84.469536,611.761902 
	C83.121559,609.557190 81.659714,608.504456 80.121590,607.578430 
	C74.859100,604.410217 69.430145,601.489990 64.375298,598.022339 
	C62.844990,596.972534 62.321968,594.454407 61.337570,592.608826 
	C63.097034,592.392212 65.093025,591.524109 66.578011,592.063354 
	C77.177338,595.911804 87.896675,599.555420 98.139404,604.225769 
	C108.998466,609.177185 119.654312,612.480835 132.009094,612.245728 
	C180.937119,611.314453 229.882950,611.141052 278.822723,611.070190 
	C309.435272,611.025940 340.048584,611.927734 370.661926,611.954346 
	C496.280365,612.063660 621.898987,611.996399 747.517517,612.005005 
	C761.973755,612.005981 771.987000,621.995789 771.994202,636.419067 
	C772.011841,671.905457 772.143250,707.393188 771.822876,742.876709 
	C771.781799,747.429932 769.382507,751.977539 767.968018,756.494019 
	C767.480957,758.048950 766.665466,759.500977 766.000000,761.000000 
	C521.643372,761.000000 277.286682,761.000000 32.427670,760.642456 
	C25.545507,751.674316 25.864063,741.733093 25.944771,731.712463 
	C26.122929,709.592346 25.898129,687.468994 26.086313,665.349060 
	C26.123867,660.934692 24.856476,659.212341 20.297550,658.753235 
	C17.850697,658.506714 14.183324,656.322693 13.644796,654.319702 
	C12.725707,650.901367 16.299252,649.593506 19.317896,648.760925 
	C20.754025,648.364990 22.176027,647.861755 23.529751,647.243591 
	C24.372627,646.858643 25.751772,646.148865 25.736805,645.617432 
	C25.594231,640.556274 26.182623,635.159607 24.570684,630.556335 
	C23.324818,626.998474 22.544538,625.877991 26.708830,624.758911 
	C29.384382,624.039978 32.828583,621.198181 29.559008,618.764099 
	C24.546431,615.032349 22.855537,609.901917 20.003412,604.975098 
	C17.048460,599.870667 11.696872,596.142578 7.342680,591.864258 
	C5.289741,589.847107 3.117944,587.950989 1.000002,586.000000 
	C1.000000,582.969788 1.000000,579.939575 1.338795,576.506470 
	C5.863265,581.117065 10.048940,586.130554 14.243711,591.154907 
	C18.766165,587.196472 19.753033,587.046875 24.114277,590.777039 
	C30.793165,596.489441 37.580151,602.138794 43.697121,608.422485 
	C47.744709,612.580322 51.845840,612.448425 57.161839,611.307739 
	C54.799709,603.843384 52.608334,596.747864 50.303421,589.689514 
	C48.483540,584.116455 44.604359,580.252197 39.269455,578.192871 
	C29.982286,574.607910 20.594563,571.267883 11.160859,568.086609 
	C7.909138,566.990051 4.394529,566.673035 1.000002,566.000000 
z"/>
<path fill="#050505" opacity="1.000000" stroke="none" 
	d="
M1.000002,586.468628 
	C3.117944,587.950989 5.289741,589.847107 7.342680,591.864258 
	C11.696872,596.142578 17.048460,599.870667 20.003412,604.975098 
	C22.855537,609.901917 24.546431,615.032349 29.559008,618.764099 
	C32.828583,621.198181 29.384382,624.039978 26.708830,624.758911 
	C22.544538,625.877991 23.324818,626.998474 24.570684,630.556335 
	C26.182623,635.159607 25.594231,640.556274 25.736805,645.617432 
	C25.751772,646.148865 24.372627,646.858643 23.529751,647.243591 
	C22.176027,647.861755 20.754025,648.364990 19.317896,648.760925 
	C16.299252,649.593506 12.725707,650.901367 13.644796,654.319702 
	C14.183324,656.322693 17.850697,658.506714 20.297550,658.753235 
	C24.856476,659.212341 26.123867,660.934692 26.086313,665.349060 
	C25.898129,687.468994 26.122929,709.592346 25.944771,731.712463 
	C25.864063,741.733093 25.545507,751.674316 31.962658,760.642456 
	C21.688656,761.000000 11.377314,761.000000 1.000000,761.000000 
	C1.000000,702.979126 1.000000,644.958191 1.000002,586.468628 
z"/>
<path fill="#050505" opacity="1.000000" stroke="none" 
	d="
M766.399963,761.000000 
	C766.665466,759.500977 767.480957,758.048950 767.968018,756.494019 
	C769.382507,751.977539 771.781799,747.429932 771.822876,742.876709 
	C772.143250,707.393188 772.011841,671.905457 771.994202,636.419067 
	C771.987000,621.995789 761.973755,612.005981 747.517517,612.005005 
	C621.898987,611.996399 496.280365,612.063660 370.661926,611.954346 
	C340.048584,611.927734 309.435272,611.025940 278.822723,611.070190 
	C229.882950,611.141052 180.937119,611.314453 132.009094,612.245728 
	C119.654312,612.480835 108.998466,609.177185 98.139404,604.225769 
	C87.896675,599.555420 77.177338,595.911804 66.578011,592.063354 
	C65.093025,591.524109 63.097034,592.392212 61.337570,592.608826 
	C62.321968,594.454407 62.844990,596.972534 64.375298,598.022339 
	C69.430145,601.489990 74.859100,604.410217 80.121590,607.578430 
	C81.659714,608.504456 83.121559,609.557190 84.469536,611.761902 
	C77.686470,611.761902 70.899857,611.861572 64.125420,611.619751 
	C63.383820,611.593323 62.450645,609.691162 62.053509,608.508789 
	C60.309513,603.316589 58.451923,598.137329 57.148750,592.827393 
	C54.473843,581.928101 48.127495,574.652527 37.380856,571.141907 
	C26.968117,567.740295 16.636272,564.091492 6.241386,560.634033 
	C4.857238,560.173706 3.311417,560.199402 1.420237,560.000000 
	C1.000000,559.250000 1.000000,558.500000 0.999994,557.375000 
	C10.066556,559.540466 19.267254,561.690796 28.156328,564.747437 
	C35.003227,567.101868 41.983498,569.822815 47.906883,573.848633 
	C51.989258,576.623230 54.339905,581.926819 57.525227,586.053223 
	C58.346741,587.117493 59.403095,588.851501 60.341618,588.844971 
	C71.756294,588.765503 81.385368,594.464600 91.545692,598.328308 
	C98.825462,601.096680 105.788841,604.700500 113.079407,607.435669 
	C116.843842,608.847961 120.997231,609.777405 125.003273,609.887024 
	C136.644684,610.205627 148.300781,610.056274 159.950546,609.990479 
	C215.163742,609.678589 270.376801,609.336670 325.589722,608.979614 
	C326.890198,608.971252 328.188721,608.659485 330.234894,608.231689 
	C338.321167,607.658264 345.660736,607.342407 353.000275,607.026550 
	C354.301971,607.684204 355.590851,608.886841 356.907257,608.917664 
	C376.181183,609.370178 395.458588,609.939148 414.735565,609.955017 
	C526.650330,610.046997 638.565613,610.139648 750.479370,609.783752 
	C761.662781,609.748169 774.476013,622.156738 774.234192,633.685242 
	C773.560181,665.813354 774.034607,697.964844 773.979675,730.106934 
	C773.962219,740.307861 775.482605,750.743530 770.005981,760.619812 
	C768.933289,761.000000 767.866638,761.000000 766.399963,761.000000 
z"/>
<path fill="#050505" opacity="1.000000" stroke="none" 
	d="
M1.000002,566.454102 
	C4.394529,566.673035 7.909138,566.990051 11.160859,568.086609 
	C20.594563,571.267883 29.982286,574.607910 39.269455,578.192871 
	C44.604359,580.252197 48.483540,584.116455 50.303421,589.689514 
	C52.608334,596.747864 54.799709,603.843384 57.161839,611.307739 
	C51.845840,612.448425 47.744709,612.580322 43.697121,608.422485 
	C37.580151,602.138794 30.793165,596.489441 24.114277,590.777039 
	C19.753033,587.046875 18.766165,587.196472 14.243711,591.154907 
	C10.048940,586.130554 5.863265,581.117065 1.338795,576.051758 
	C1.000000,572.969421 1.000000,569.938782 1.000002,566.454102 
z"/>
<path fill="#FEFEFE" opacity="1.000000" stroke="none" 
	d="
M278.783997,327.014801 
	C278.876740,325.522797 278.969513,324.030792 279.079529,322.261108 
	C288.678101,322.261108 298.251740,322.261108 308.077240,322.261108 
	C308.077240,350.111877 308.077240,377.853302 308.077240,406.324921 
	C299.052063,406.324921 289.968384,406.415985 280.896362,406.133057 
	C280.247437,406.112854 279.683899,403.354553 279.085999,401.083008 
	C279.016479,399.585022 278.941589,398.873352 278.866730,398.161713 
	C278.511475,397.899414 278.156219,397.637146 277.800964,397.374847 
	C277.032593,398.529816 276.264252,399.684814 275.495911,400.839783 
	C257.187317,414.668152 232.621628,409.757080 220.322449,394.836334 
	C219.434219,393.894684 218.904495,393.373749 218.374786,392.852814 
	C217.467331,391.331543 216.559860,389.810303 215.328369,387.836914 
	C214.678024,386.920227 214.351700,386.455658 214.025360,385.991089 
	C212.816162,382.215729 211.606964,378.440399 210.227280,373.977417 
	C209.668854,372.898346 209.280914,372.506866 208.892944,372.115387 
	C208.657639,372.743958 208.422348,373.372528 208.187073,374.001129 
	C209.319550,384.496796 210.452011,394.992432 211.632721,405.935272 
	C200.973938,405.935272 190.794113,405.935272 180.156387,405.935272 
	C178.346146,382.420410 176.543320,359.002045 174.560364,334.815796 
	C174.190613,331.517456 174.000992,328.987000 173.811386,326.456512 
	C173.559479,326.414612 173.307571,326.372742 173.055679,326.330841 
	C172.112442,329.221191 171.169189,332.111511 170.225952,335.001862 
	C162.495895,356.998199 154.678879,378.964752 147.123550,401.020935 
	C145.900192,404.592285 144.315582,405.848053 140.472809,405.786102 
	C126.606430,405.562469 126.651459,405.704376 122.069962,392.346497 
	C115.315285,372.652466 108.499641,352.979248 101.654488,333.316498 
	C101.179535,331.952209 100.245117,330.747833 99.524368,329.469116 
	C99.059212,329.565521 98.594063,329.661926 98.128906,329.758301 
	C96.081642,355.108795 94.034370,380.459259 91.967148,406.056824 
	C81.563065,406.056824 71.503502,406.056824 60.822006,406.056824 
	C61.152615,402.243744 61.463223,398.661346 61.868805,394.368896 
	C61.924904,393.105682 61.886024,392.552521 61.847145,391.999359 
	C62.148685,389.269440 62.450222,386.539490 62.866726,383.086731 
	C62.936584,381.909088 62.891476,381.454224 62.846367,380.999390 
	C66.221855,344.237030 69.597336,307.474670 73.021431,270.182983 
	C83.644043,270.182983 93.937813,270.020081 104.212234,270.391968 
	C105.476898,270.437714 107.086060,273.164429 107.779617,274.943451 
	C116.800537,298.083008 125.684792,321.275818 134.833008,345.098267 
	C135.445343,346.190613 135.828140,346.639984 136.210953,347.089325 
	C136.517426,346.408752 136.823898,345.728149 137.130371,345.047577 
	C145.727310,323.023193 154.367050,301.015411 162.900024,278.966248 
	C166.290237,270.206024 166.182541,270.164337 175.667252,270.164307 
	C183.301407,270.164276 190.935562,270.164307 199.209961,270.164307 
	C202.135162,302.386108 205.031342,334.288147 207.952576,366.954132 
	C208.090546,368.371185 208.203476,369.024261 208.316391,369.677368 
	C208.488068,369.662079 208.659760,369.646820 208.831436,369.631561 
	C208.831436,368.754089 208.831436,367.876587 208.831436,366.999115 
	C208.935471,350.712982 214.206955,336.715729 227.677505,326.853699 
	C231.443405,324.096619 236.240616,322.748199 241.201080,320.502563 
	C242.558578,320.103668 243.279755,319.955780 244.000916,319.807861 
	C248.151657,319.785980 252.302383,319.764099 257.215759,319.820435 
	C259.294861,319.997681 260.611359,320.096710 261.927856,320.195709 
	C267.028229,322.821320 272.128632,325.446899 277.714417,328.403870 
	C278.394562,328.161774 278.589264,327.588287 278.783997,327.014801 
M276.599396,353.046448 
	C276.005035,352.245911 275.475006,351.386688 274.806213,350.654083 
	C269.208466,344.521942 259.660126,342.631317 251.855240,346.077850 
	C244.144089,349.482971 239.784164,357.423492 240.653809,366.478516 
	C241.501617,375.306152 246.522430,381.119354 255.116943,383.252563 
	C263.119568,385.238861 270.188385,383.328400 275.308411,376.984772 
	C281.066528,369.850586 281.299988,361.810577 276.599396,353.046448 
M98.136230,329.019012 
	C98.740417,329.010376 99.344612,329.001709 99.948799,328.993042 
	C99.587547,328.313446 99.226295,327.633881 98.865044,326.954285 
	C98.622017,327.380646 98.378990,327.806976 98.136230,329.019012 
z"/>
<path fill="#FDFDFD" opacity="1.000000" stroke="none" 
	d="
M409.159180,525.989990 
	C409.218903,534.815918 415.910248,541.209106 425.605194,541.751831 
	C433.083069,542.170410 439.772461,540.516724 445.175171,534.896423 
	C446.055847,533.980286 448.026184,532.953552 448.865967,533.340088 
	C455.433899,536.363159 461.848724,539.718811 468.643677,543.139404 
	C460.972687,555.619507 450.191101,562.232544 436.574371,564.451172 
	C418.592804,567.380920 402.598206,563.788025 389.724121,549.968506 
	C374.303101,533.415100 374.237091,506.396515 391.291809,489.657928 
	C392.191895,488.660645 392.685303,488.068573 393.178711,487.476440 
	C406.459076,476.309418 421.722382,473.248077 438.299255,477.240204 
	C452.572998,480.677673 462.750549,489.235138 467.889465,504.068115 
	C468.491119,506.350128 468.923004,507.958344 469.550476,510.294830 
	C470.677063,507.776245 471.495514,505.946625 472.313934,504.117004 
	C485.658661,478.170044 511.302429,470.140167 536.903564,479.240112 
	C538.134155,479.677521 539.833862,478.618042 541.333313,478.510864 
	C544.957153,478.251740 548.591675,478.143707 552.616333,477.956390 
	C552.616333,467.742645 552.616333,457.650604 552.616333,447.251282 
	C562.572876,447.251282 572.130127,447.251282 582.111694,447.251282 
	C582.111694,457.432678 582.111694,467.508453 582.111694,478.064209 
	C588.097961,478.064209 593.683594,478.064209 599.675354,478.064209 
	C599.675354,485.741943 599.675354,492.940704 599.675354,500.597229 
	C594.015442,500.597229 588.411560,500.597229 583.020447,500.597229 
	C583.020447,511.942261 582.533386,522.863892 583.222656,533.710754 
	C583.575684,539.265259 587.927551,540.046509 595.985291,536.568665 
	C598.274597,543.827332 600.622253,551.016907 602.711609,558.280823 
	C602.925781,559.025269 601.820740,560.737488 600.944153,561.118958 
	C588.504028,566.533386 575.846924,567.868347 563.809570,560.586426 
	C560.479187,558.571716 558.390137,554.179626 556.270935,550.562378 
	C552.832886,544.693848 552.833069,538.012329 552.782776,531.449158 
	C552.706299,521.474915 552.762817,511.499573 552.762817,500.910461 
	C548.501160,500.910461 544.437805,500.910461 540.247437,500.910461 
	C540.087585,498.672028 539.970764,497.036346 539.850891,495.395020 
	C539.543396,495.404236 539.150696,495.300720 538.947754,495.451874 
	C536.254089,497.459106 537.556763,503.251984 532.427917,502.772614 
	C528.939758,502.446564 525.507446,501.389038 522.085571,500.519318 
	C516.317932,499.053345 511.359772,500.721100 507.593445,505.639709 
	C505.372986,508.539520 502.449188,511.232819 501.273621,514.529602 
	C499.015167,520.863403 500.547272,527.083008 504.623413,533.201294 
	C505.966766,534.561218 506.927734,535.426758 507.888733,536.292358 
	C514.815369,543.078125 522.892395,542.142578 530.787292,538.995972 
	C534.274353,537.606201 535.335754,538.419250 536.640808,541.340698 
	C539.048584,546.730530 541.755615,551.986572 544.631104,557.901489 
	C530.238037,565.757324 515.428833,568.108459 500.389801,562.603333 
	C483.348175,556.365173 472.440491,544.113892 469.300629,524.954346 
	C450.005554,524.954346 430.458618,524.954346 410.172913,524.994629 
	C409.342499,525.353333 409.250824,525.671631 409.159180,525.989990 
M424.503143,508.121887 
	C429.964142,508.121887 435.425171,508.121887 440.888550,508.121887 
	C440.697815,498.938690 432.204559,493.949860 422.931396,495.004822 
	C414.959015,495.911804 409.737823,501.310944 410.575348,508.121887 
	C414.867371,508.121887 419.187012,508.121887 424.503143,508.121887 
z"/>
<path fill="#FDFDFD" opacity="1.000000" stroke="none" 
	d="
M164.168976,473.000702 
	C162.094238,495.493225 146.041229,510.970734 123.313179,512.047852 
	C115.528954,512.416687 107.712532,512.106384 99.346207,512.106384 
	C99.346207,529.417969 99.346207,545.946045 99.346207,562.723694 
	C88.721161,562.723694 78.663391,562.723694 68.328514,562.723694 
	C68.328514,517.521606 68.328514,472.484070 68.328514,427.145264 
	C69.186996,427.004456 69.967552,426.764160 70.747887,426.764862 
	C87.567780,426.780151 104.395866,426.534760 121.203049,427.015442 
	C127.083038,427.183594 133.155914,428.460724 138.718124,430.426910 
	C156.033478,436.547760 163.826202,449.114716 164.076248,470.865601 
	C164.070938,472.099060 164.119949,472.549896 164.168976,473.000702 
M123.936386,455.382935 
	C116.155396,450.916046 107.764412,451.907257 99.298523,452.215515 
	C99.298523,464.048676 99.298523,475.455414 99.298523,488.071716 
	C106.281441,487.301727 113.056992,487.068298 119.588730,485.684204 
	C125.638771,484.402222 130.044159,480.364868 130.912094,473.871735 
	C131.843124,466.906708 131.439163,460.150085 123.936386,455.382935 
z"/>
<path fill="#FCFCFC" opacity="1.000000" stroke="none" 
	d="
M399.567017,387.821075 
	C399.077820,376.539673 398.559967,365.259430 398.117920,353.976166 
	C397.995789,350.858368 398.099365,347.731720 398.099365,344.559387 
	C393.864014,344.244354 390.107391,343.964905 386.104126,343.067810 
	C385.601471,342.633606 385.345459,342.817047 385.089417,343.000488 
	C383.882172,344.916199 382.674927,346.831909 381.899261,348.062714 
	C376.666687,347.046722 371.782806,345.798706 366.820526,345.196472 
	C356.017303,343.885223 349.453430,352.886078 349.276855,362.443237 
	C349.034027,375.589020 349.222687,388.742615 349.208649,401.892883 
	C349.207245,403.203552 349.082275,404.514099 349.001587,406.078400 
	C339.373993,406.078400 329.940826,406.078400 320.188507,406.078400 
	C320.188507,378.185913 320.188507,350.337677 320.188507,322.233337 
	C329.718964,322.233337 339.273743,322.233337 349.345825,322.233337 
	C349.345825,325.323364 349.345825,328.209412 349.345825,332.363861 
	C351.345612,330.746338 352.499329,329.982727 353.449402,329.018433 
	C362.611206,319.719025 373.434021,317.469696 385.835297,320.958801 
	C388.788635,321.789734 392.013275,321.656464 395.923889,321.968323 
	C397.110504,321.313263 397.486389,320.656555 397.862274,319.999878 
	C397.862274,310.379181 397.862274,300.758484 397.862274,290.749756 
	C408.020294,290.749756 417.555420,290.749756 427.743683,290.749756 
	C427.743683,300.604156 427.743683,310.354584 427.860901,320.833252 
	C428.314697,321.641479 428.651245,321.721405 428.987823,321.801331 
	C434.290192,321.801331 439.592590,321.801331 445.261230,321.801331 
	C445.261230,329.419342 445.261230,336.607483 445.261230,344.132874 
	C439.504639,344.132874 434.061432,344.132874 427.707397,344.132874 
	C427.707397,348.502350 427.663605,352.558563 427.717651,356.613495 
	C427.799438,362.753448 427.696594,368.913452 428.202179,375.021027 
	C428.388519,377.272339 430.077881,379.399200 431.798767,381.846619 
	C434.401550,381.927795 436.287262,381.745209 438.172943,381.562622 
	C440.475861,380.307098 441.893860,380.469879 442.701263,383.464661 
	C444.403076,389.776672 446.464600,395.991699 448.342346,402.878723 
	C447.816406,403.987244 447.326691,404.463593 446.836975,404.939941 
	C438.701416,407.911774 430.475220,409.974518 421.665375,408.561676 
	C411.281921,406.896454 404.117035,401.515930 400.510315,390.814636 
	C400.008667,389.443359 399.787842,388.632233 399.567017,387.821075 
z"/>
<path fill="#FDFDFD" opacity="1.000000" stroke="none" 
	d="
M220.999191,250.172119 
	C220.398712,248.685013 219.289886,247.202484 219.276489,245.710114 
	C219.145050,231.059311 219.258484,216.406494 219.170837,201.755051 
	C219.120834,193.396118 214.866898,188.162048 206.003555,185.994690 
	C204.507980,186.023712 203.753738,186.087051 202.999512,186.150391 
	C193.796417,187.208694 187.443146,193.971954 187.398193,202.984268 
	C187.329285,216.794342 187.399292,230.605087 187.355453,244.415375 
	C187.349762,246.208588 187.017960,248.000778 185.955780,249.905945 
	C176.382645,250.068695 167.690933,250.118942 158.999222,250.169189 
	C158.659393,248.998276 158.023758,247.827682 158.022430,246.656387 
	C157.971970,201.665466 157.978210,156.674469 157.989014,111.683479 
	C157.989243,110.728714 158.130753,109.773979 158.221771,108.624451 
	C167.896362,108.624451 177.320694,108.624451 187.393814,108.624451 
	C187.393814,129.623840 187.393814,150.395370 187.511475,171.954941 
	C188.178635,172.531082 188.728119,172.319214 189.277603,172.107330 
	C203.462555,160.258301 218.610168,160.499222 234.227051,168.769669 
	C243.539307,173.701309 248.523865,181.908401 248.774658,192.207718 
	C249.228546,210.847382 248.937500,229.505463 248.895859,248.155701 
	C248.894485,248.767761 248.222809,249.378311 246.968964,250.004944 
	C237.715942,250.070938 229.357574,250.121521 220.999191,250.172119 
z"/>
<path fill="#FCFCFC" opacity="1.000000" stroke="none" 
	d="
M554.890198,322.999756 
	C556.580811,322.659302 558.267944,322.046356 559.962646,322.024750 
	C568.071228,321.921478 576.181824,321.978424 584.288940,321.978424 
	C584.504639,322.854370 584.716919,323.314484 584.717163,323.774719 
	C584.732971,351.046082 584.731262,378.317413 584.731262,405.611816 
	C574.865112,405.611816 565.195251,405.611816 555.437256,404.894226 
	C555.349060,402.172211 555.349060,400.167816 555.349060,397.166931 
	C553.283691,399.114716 552.049805,400.278351 550.815979,401.442017 
	C529.798401,416.852661 496.668579,408.968201 487.065308,376.976868 
	C486.586700,374.845978 486.207825,373.422668 485.828979,371.999390 
	C485.875580,366.975861 485.922180,361.952332 486.053589,356.166992 
	C486.202881,354.977173 486.267426,354.549164 486.331970,354.121185 
	C489.536530,347.449493 492.741119,340.777771 496.353333,333.627594 
	C498.336884,331.485199 499.912811,329.821320 501.488708,328.157410 
	C506.807648,325.604645 512.126587,323.051910 518.060303,320.288635 
	C519.117065,319.989441 519.558960,319.900787 520.000854,319.812134 
	C524.147217,319.781525 528.293579,319.750946 533.200989,319.796082 
	C535.291992,319.958862 536.621948,320.045929 537.951904,320.132996 
	C542.347351,322.199310 546.742737,324.265625 551.698059,326.731384 
	C552.983643,327.708069 553.709290,328.285278 554.890198,329.224609 
	C554.890198,326.796051 554.890198,324.897919 554.890198,322.999756 
M554.085999,355.653778 
	C553.355652,354.363220 552.750427,352.979950 551.874268,351.797455 
	C547.015625,345.240143 537.581543,342.654266 529.427246,345.569031 
	C521.144836,348.529541 516.437622,355.984436 516.829224,365.520752 
	C517.199158,374.529785 522.333496,380.904816 530.870483,383.146515 
	C538.399902,385.123596 545.126526,383.693512 550.498108,378.047089 
	C556.445496,371.795441 557.318848,364.353516 554.085999,355.653778 
z"/>
<path fill="#FDFDFD" opacity="1.000000" stroke="none" 
	d="
M237.813110,511.873016 
	C243.873489,488.291412 265.239471,474.119720 291.551514,475.749847 
	C307.109772,476.713715 320.236603,482.608704 330.024445,494.921143 
	C343.393097,511.738068 342.774170,544.036011 316.282593,558.269348 
	C296.772034,568.751892 276.584351,568.419312 257.352051,557.280029 
	C241.430542,548.058350 234.572403,531.182251 237.813110,511.873016 
M307.388031,520.506165 
	C307.586517,509.347412 298.856384,498.945953 283.909515,501.132996 
	C272.533051,502.797577 265.860809,514.468140 268.997742,526.604797 
	C271.359375,535.741821 279.452362,540.913147 290.093140,540.084534 
	C299.773895,539.330688 306.170105,532.397400 307.388031,520.506165 
z"/>
<path fill="#FEFEFE" opacity="1.000000" stroke="none" 
	d="
M93.999161,250.175079 
	C93.278549,248.499725 91.935699,246.826736 91.929321,245.148651 
	C91.805244,212.512238 91.837143,179.875229 91.837059,147.238342 
	C91.837051,145.429901 91.837059,143.621460 91.837059,141.291183 
	C80.994652,141.291183 70.426117,141.291183 59.551769,141.291183 
	C59.551769,132.044266 59.551769,123.318375 59.551769,114.246902 
	C91.283791,114.246902 122.823967,114.246902 154.700562,114.246902 
	C154.700562,122.955124 154.700562,131.694061 154.700562,140.930817 
	C144.503616,140.930817 134.114059,140.930817 123.070168,140.930817 
	C123.070168,143.173157 123.070168,144.930710 123.070168,146.688278 
	C123.070114,179.325165 123.089317,211.962097 123.017883,244.598831 
	C123.013977,246.384888 122.254791,248.169312 120.960793,249.986237 
	C111.382668,250.070328 102.690918,250.122711 93.999161,250.175079 
z"/>
<path fill="#FDFDFD" opacity="1.000000" stroke="none" 
	d="
M629.059937,327.021484 
	C633.207153,324.862610 637.354370,322.703735 642.141724,320.307983 
	C643.779297,319.850861 644.776794,319.630585 645.774353,319.410309 
	C654.181702,318.959686 662.222534,320.324432 669.903381,323.914948 
	C679.971680,328.621521 686.221008,336.521973 686.582153,347.448792 
	C687.223816,366.865479 686.762390,386.318665 686.762390,406.046875 
	C676.961670,406.046875 667.391113,406.046875 657.182251,406.046875 
	C657.182251,404.248291 657.182312,402.643982 657.182312,401.039673 
	C657.182129,386.884277 657.235657,372.728577 657.162842,358.573547 
	C657.114136,349.101440 651.033081,342.332733 642.659363,342.191559 
	C633.760742,342.041565 625.480835,349.778076 625.397766,358.727570 
	C625.252563,374.356567 625.357361,389.987885 625.357361,405.977539 
	C615.524048,405.977539 605.982910,405.977539 596.354370,405.977539 
	C596.216492,405.431580 595.999023,404.971954 595.998718,404.512177 
	C595.982605,377.215363 595.984314,349.918549 595.984314,322.301270 
	C605.695923,322.301270 615.258728,322.301270 625.110535,322.301270 
	C625.202576,323.551697 625.296509,324.828156 625.377930,326.906311 
	C627.302490,331.276428 627.894958,327.608551 629.059937,327.021484 
z"/>
<path fill="#FCFCFC" opacity="1.000000" stroke="none" 
	d="
M283.260468,212.982590 
	C283.161530,221.609451 289.886841,228.189651 298.940002,228.922241 
	C308.059540,229.660217 315.645630,227.007797 321.508575,219.691483 
	C328.570526,223.235794 335.338165,226.632385 342.624664,230.289398 
	C335.482880,242.620865 324.831665,248.905945 310.892334,251.663177 
	C309.131561,251.973953 308.065277,252.085968 306.998962,252.197968 
	C302.271210,252.155746 297.543488,252.113525 292.040161,252.041687 
	C290.509735,251.998337 289.754913,251.984604 289.000061,251.970856 
	C278.610199,248.967209 269.484924,244.028183 262.428223,235.527069 
	C241.439850,210.242630 254.574539,171.562851 288.711578,164.056259 
	C304.399719,160.606491 319.268524,163.483353 331.525604,174.661072 
	C342.356171,184.537903 344.819305,197.455246 343.944397,212.131760 
	C324.075958,212.131760 304.489105,212.131760 284.204651,212.145294 
	C283.120819,212.342407 283.038635,212.616989 283.260468,212.982590 
M294.556976,182.783401 
	C287.251343,184.953476 283.915588,189.095200 284.625092,195.199188 
	C294.697998,195.199188 304.777985,195.199188 314.869446,195.199188 
	C314.286896,185.664200 306.616302,180.764771 294.556976,182.783401 
z"/>
<path fill="#FEFEFE" opacity="1.000000" stroke="none" 
	d="
M353.258667,606.783447 
	C345.660736,607.342407 338.321167,607.658264 330.516907,607.913635 
	C326.620972,606.168640 323.189728,604.484192 319.333282,602.591003 
	C322.263214,594.921326 325.110992,587.466736 328.120544,579.588684 
	C329.613007,580.082214 330.918060,580.513794 332.930908,581.057678 
	C334.092529,581.133606 334.546295,581.097229 335.000092,581.060852 
	C339.773438,581.934814 342.237640,579.533447 343.043427,575.144348 
	C343.520569,572.545166 343.854858,569.877930 343.860352,567.240479 
	C343.917877,539.590332 343.895874,511.939972 343.895874,484.289703 
	C343.895874,482.469940 343.895874,480.650208 343.895874,478.504242 
	C353.547455,478.504242 362.944824,478.504242 372.944183,478.504242 
	C373.039307,480.241089 373.217224,481.986237 373.218231,483.731506 
	C373.235321,513.380615 373.378571,543.031006 373.104675,572.677612 
	C373.050323,578.559143 372.011597,584.618469 370.300354,590.253662 
	C367.793762,598.507996 361.968201,604.052917 353.258667,606.783447 
z"/>
<path fill="#FDFDFD" opacity="1.000000" stroke="none" 
	d="
M200.856949,487.448456 
	C208.737503,479.206146 217.960159,474.085144 229.738663,476.147034 
	C234.335571,476.951782 238.740662,478.852264 243.650742,480.383972 
	C239.287598,489.333893 235.463959,497.177155 231.924850,504.436768 
	C226.198166,503.378052 220.942245,501.731720 215.641739,501.572815 
	C205.872574,501.279999 199.134964,508.375580 199.081726,518.242249 
	C199.002762,532.882263 199.061279,547.523010 199.061279,562.567627 
	C189.150162,562.567627 179.601318,562.567627 169.793701,562.567627 
	C169.793701,534.724060 169.793701,506.792114 169.793701,478.176300 
	C178.802032,478.176300 187.728485,477.846252 196.612900,478.314178 
	C201.121765,478.551666 198.251221,482.813690 199.062775,485.867126 
	C199.225739,487.257690 199.407257,487.908417 199.588776,488.559113 
	C200.011490,488.188873 200.434219,487.818665 200.856949,487.448456 
z"/>
<path fill="#FAFAFA" opacity="1.000000" stroke="none" 
	d="
M449.971954,402.999939 
	C450.050385,380.041687 450.130615,357.083405 450.205566,334.125153 
	C450.217987,330.313385 450.207275,326.501556 450.207275,322.331818 
	C459.902710,322.331818 469.464813,322.331818 479.424377,322.331818 
	C479.424377,350.029236 479.424377,377.879425 479.424377,405.689331 
	C469.748749,405.689331 460.026825,405.689331 450.239685,405.019226 
	C450.106964,403.899384 450.039459,403.449677 449.971954,402.999939 
z"/>
<path fill="#FBFBFB" opacity="1.000000" stroke="none" 
	d="
M341.078156,441.999908 
	C342.634949,435.420868 345.700226,429.934204 352.310486,427.270050 
	C361.722198,423.476746 372.375122,428.635223 375.439240,438.355408 
	C378.375702,447.670654 372.911407,457.506470 363.360168,460.098022 
	C353.403198,462.799622 343.904175,456.827972 341.810883,446.557953 
	C341.745544,446.237518 341.594727,445.934448 341.409424,444.945068 
	C341.249451,443.511230 341.163788,442.755554 341.078156,441.999908 
z"/>
<path fill="#FCFCFC" opacity="1.000000" stroke="none" 
	d="
M464.230713,304.372314 
	C454.617218,302.872620 448.361328,296.469574 447.845978,288.000610 
	C447.375977,280.277069 453.014648,272.298157 460.425385,270.200287 
	C468.158752,268.011108 476.380676,271.447571 480.421204,278.606018 
	C487.632477,291.382050 476.477356,305.567871 464.230713,304.372314 
z"/>
<path fill="#060606" opacity="1.000000" stroke="none" 
	d="
M94.111626,250.555313 
	C102.690918,250.122711 111.382668,250.070328 120.537643,250.094254 
	C120.172287,250.776535 119.351883,251.895065 118.513847,251.908447 
	C110.945114,252.029190 103.373085,251.976440 95.802834,251.897278 
	C95.273293,251.891739 94.750183,251.270477 94.111626,250.555313 
z"/>
<path fill="#060606" opacity="1.000000" stroke="none" 
	d="
M159.111069,250.549911 
	C167.690933,250.118942 176.382645,250.068695 185.537628,250.094452 
	C185.172134,250.776474 184.351547,251.895126 183.513367,251.908463 
	C175.943527,252.028946 168.370407,251.975876 160.799057,251.896210 
	C160.270355,251.890640 159.748138,251.266922 159.111069,250.549911 
z"/>
<path fill="#060606" opacity="1.000000" stroke="none" 
	d="
M221.111359,250.552582 
	C229.357574,250.121521 237.715942,250.070938 246.537628,250.096252 
	C246.172379,250.777618 245.352554,251.894104 244.513962,251.908386 
	C237.277710,252.031509 230.037872,251.976974 222.799973,251.896545 
	C222.270981,251.890671 221.748840,251.268616 221.111359,250.552582 
z"/>
<path fill="#060606" opacity="1.000000" stroke="none" 
	d="
M170.627533,335.001251 
	C171.169189,332.111511 172.112442,329.221191 173.055679,326.330841 
	C173.307571,326.372742 173.559479,326.414612 173.811386,326.456512 
	C174.000992,328.987000 174.190613,331.517456 174.310120,334.480347 
	C173.169708,334.942017 172.099411,334.971344 170.627533,335.001251 
z"/>
<path fill="#060606" opacity="1.000000" stroke="none" 
	d="
M550.946411,401.792328 
	C552.049805,400.278351 553.283691,399.114716 555.349060,397.166931 
	C555.349060,400.167816 555.349060,402.172211 555.219849,404.588196 
	C553.752747,404.047394 552.414856,403.095001 550.946411,401.792328 
z"/>
<path fill="#060606" opacity="1.000000" stroke="none" 
	d="
M471.895508,504.085266 
	C471.495514,505.946625 470.677063,507.776245 469.550476,510.294830 
	C468.923004,507.958344 468.491119,506.350128 468.090240,504.370605 
	C469.239838,504.017365 470.358490,504.035461 471.895508,504.085266 
z"/>
<path fill="#060606" opacity="1.000000" stroke="none" 
	d="
M438.011475,381.219543 
	C436.287262,381.745209 434.401550,381.927795 432.180389,381.952148 
	C433.430542,378.764648 435.445923,378.548431 438.011475,381.219543 
z"/>
<path fill="#060606" opacity="1.000000" stroke="none" 
	d="
M554.538208,323.072021 
	C554.890198,324.897919 554.890198,326.796051 554.890198,329.224609 
	C553.709290,328.285278 552.983643,327.708069 552.030884,326.890472 
	C552.597961,325.481506 553.392090,324.312927 554.538208,323.072021 
z"/>
<path fill="#060606" opacity="1.000000" stroke="none" 
	d="
M501.073608,328.120026 
	C499.912811,329.821320 498.336884,331.485199 496.460907,333.320251 
	C495.790985,330.134247 497.057800,328.138092 501.073608,328.120026 
z"/>
<path fill="#060606" opacity="1.000000" stroke="none" 
	d="
M485.519470,372.062195 
	C486.207825,373.422668 486.586700,374.845978 486.912720,376.634949 
	C486.309875,375.375397 485.759918,373.750183 485.519470,372.062195 
z"/>
<path fill="#060606" opacity="1.000000" stroke="none" 
	d="
M307.079468,252.529861 
	C308.065277,252.085968 309.131561,251.973953 310.598969,251.902206 
	C310.299561,254.669601 308.927887,254.593216 307.079468,252.529861 
z"/>
<path fill="#060606" opacity="1.000000" stroke="none" 
	d="
M537.905884,319.758728 
	C536.621948,320.045929 535.291992,319.958862 533.603027,319.702271 
	C534.782593,319.483276 536.321228,319.433868 537.905884,319.758728 
z"/>
<path fill="#060606" opacity="1.000000" stroke="none" 
	d="
M261.892029,319.816711 
	C260.611359,320.096710 259.294861,319.997681 257.617828,319.741852 
	C258.790283,319.535919 260.323242,319.486816 261.892029,319.816711 
z"/>
<path fill="#060606" opacity="1.000000" stroke="none" 
	d="
M628.721802,327.015076 
	C627.894958,327.608551 627.302490,331.276428 625.522095,327.344849 
	C626.580383,326.990662 627.482056,326.999664 628.721802,327.015076 
z"/>
<path fill="#060606" opacity="1.000000" stroke="none" 
	d="
M340.736694,442.048828 
	C341.163788,442.755554 341.249451,443.511230 341.216858,444.633484 
	C338.838104,444.523651 338.358612,443.615601 340.736694,442.048828 
z"/>
<path fill="#060606" opacity="1.000000" stroke="none" 
	d="
M507.911438,535.893799 
	C506.927734,535.426758 505.966766,534.561218 504.924957,533.377441 
	C505.874146,533.871277 506.904144,534.683228 507.911438,535.893799 
z"/>
<path fill="#060606" opacity="1.000000" stroke="none" 
	d="
M203.058350,186.466339 
	C203.753738,186.087051 204.507980,186.023712 205.631348,186.055389 
	C205.039398,186.361008 204.078293,186.571640 203.058350,186.466339 
z"/>
<path fill="#060606" opacity="1.000000" stroke="none" 
	d="
M243.928314,319.480164 
	C243.279755,319.955780 242.558578,320.103668 241.468658,320.262756 
	C241.269867,318.060577 242.064362,317.381805 243.928314,319.480164 
z"/>
<path fill="#060606" opacity="1.000000" stroke="none" 
	d="
M289.046021,252.298050 
	C289.754913,251.984604 290.509735,251.998337 291.632782,252.100006 
	C291.031311,252.333710 290.061676,252.479462 289.046021,252.298050 
z"/>
<path fill="#060606" opacity="1.000000" stroke="none" 
	d="
M399.236206,387.989441 
	C399.787842,388.632233 400.008667,389.443359 400.260895,390.573669 
	C399.830017,389.981140 399.367706,389.069458 399.236206,387.989441 
z"/>
<path fill="#060606" opacity="1.000000" stroke="none" 
	d="
M275.916229,400.881531 
	C276.264252,399.684814 277.032593,398.529816 277.800964,397.374847 
	C278.156219,397.637146 278.511475,397.899414 278.866730,398.161713 
	C278.941589,398.873352 279.016479,399.585022 278.980042,400.648560 
	C278.024689,400.974701 277.180634,400.949005 275.916229,400.881531 
z"/>
<path fill="#060606" opacity="1.000000" stroke="none" 
	d="
M449.771179,402.999664 
	C450.039459,403.449677 450.106964,403.899384 450.059631,404.674561 
	C449.167908,404.994659 448.390961,404.989349 447.225525,404.961975 
	C447.326691,404.463593 447.816406,403.987244 448.536926,403.250000 
	C449.035248,402.996582 449.302795,403.000000 449.771179,402.999664 
z"/>
<path fill="#060606" opacity="1.000000" stroke="none" 
	d="
M218.092804,393.022034 
	C218.904495,393.373749 219.434219,393.894684 220.022797,394.692719 
	C219.324722,394.376984 218.567780,393.784119 218.092804,393.022034 
z"/>
<path fill="#060606" opacity="1.000000" stroke="none" 
	d="
M645.432922,319.242798 
	C644.776794,319.630585 643.779297,319.850861 642.390869,320.051910 
	C643.030518,319.713562 644.061035,319.394440 645.432922,319.242798 
z"/>
<path fill="#060606" opacity="1.000000" stroke="none" 
	d="
M392.997589,487.173706 
	C392.685303,488.068573 392.191895,488.660645 391.429352,489.369019 
	C391.712280,488.613831 392.264374,487.742401 392.997589,487.173706 
z"/>
<path fill="#060606" opacity="1.000000" stroke="none" 
	d="
M334.966003,580.765015 
	C334.546295,581.097229 334.092529,581.133606 333.319427,581.025635 
	C333.262360,580.393372 333.524597,579.905457 333.786865,579.417603 
	C334.168549,579.768127 334.550232,580.118652 334.966003,580.765015 
z"/>
<path fill="#060606" opacity="1.000000" stroke="none" 
	d="
M208.485077,374.001038 
	C208.422348,373.372528 208.657639,372.743958 208.892944,372.115387 
	C209.280914,372.506866 209.668854,372.898346 210.015991,373.644958 
	C209.577835,374.000336 209.180466,374.000641 208.485077,374.001038 
z"/>
<path fill="#060606" opacity="1.000000" stroke="none" 
	d="
M62.572052,381.041687 
	C62.891476,381.454224 62.936584,381.909088 62.850121,382.682861 
	C62.275772,382.663025 61.833000,382.324280 61.390240,381.985504 
	C61.692745,381.685028 61.995239,381.384521 62.572052,381.041687 
z"/>
<path fill="#060606" opacity="1.000000" stroke="none" 
	d="
M486.020630,354.114563 
	C486.267426,354.549164 486.202881,354.977173 485.998962,355.702576 
	C485.381897,355.699341 484.904236,355.398651 484.426605,355.097992 
	C484.854187,354.767975 485.281738,354.437958 486.020630,354.114563 
z"/>
<path fill="#060606" opacity="1.000000" stroke="none" 
	d="
M397.570679,320.040680 
	C397.486389,320.656555 397.110504,321.313263 396.366821,321.891205 
	C396.425659,321.235474 396.852356,320.658478 397.570679,320.040680 
z"/>
<path fill="#060606" opacity="1.000000" stroke="none" 
	d="
M519.948547,319.528503 
	C519.558960,319.900787 519.117065,319.989441 518.337585,320.045227 
	C518.288513,319.487915 518.577026,318.963531 518.865601,318.439148 
	C519.209167,318.707703 519.552673,318.976288 519.948547,319.528503 
z"/>
<path fill="#060606" opacity="1.000000" stroke="none" 
	d="
M213.796417,386.166504 
	C214.351700,386.455658 214.678024,386.920227 215.034988,387.680817 
	C214.566223,387.431854 214.066833,386.886871 213.796417,386.166504 
z"/>
<path fill="#060606" opacity="1.000000" stroke="none" 
	d="
M164.443878,472.956329 
	C164.119949,472.549896 164.070938,472.099060 164.130249,471.323425 
	C164.694321,471.328491 165.150055,471.658386 165.605774,471.988281 
	C165.310104,472.296173 165.014450,472.604065 164.443878,472.956329 
z"/>
<path fill="#060606" opacity="1.000000" stroke="none" 
	d="
M61.534821,392.066467 
	C61.886024,392.552521 61.924904,393.105682 61.847618,393.913269 
	C61.561802,393.489655 61.392147,392.811615 61.534821,392.066467 
z"/>
<path fill="#060606" opacity="1.000000" stroke="none" 
	d="
M136.789520,345.034363 
	C136.823898,345.728149 136.517426,346.408752 136.210953,347.089325 
	C135.828140,346.639984 135.445343,346.190613 135.073471,345.370422 
	C135.539154,345.006744 135.993896,345.013947 136.789520,345.034363 
z"/>
<path fill="#060606" opacity="1.000000" stroke="none" 
	d="
M208.655991,366.999207 
	C208.831436,367.876587 208.831436,368.754089 208.831436,369.631561 
	C208.659760,369.646820 208.488068,369.662079 208.316391,369.677368 
	C208.203476,369.024261 208.090546,368.371185 208.053650,367.358765 
	C208.129654,366.999420 208.480545,366.999329 208.655991,366.999207 
z"/>
<path fill="#060606" opacity="1.000000" stroke="none" 
	d="
M200.516296,487.015808 
	C200.434219,487.818665 200.011490,488.188873 199.588776,488.559113 
	C199.407257,487.908417 199.225739,487.257690 199.141876,486.304962 
	C199.551575,486.196320 199.863617,486.389709 200.516296,487.015808 
z"/>
<path fill="#060606" opacity="1.000000" stroke="none" 
	d="
M278.582886,327.177704 
	C278.589264,327.588287 278.394562,328.161774 278.054443,328.493835 
	C278.066589,327.948486 278.224182,327.644562 278.582886,327.177704 
z"/>
<path fill="#060606" opacity="1.000000" stroke="none" 
	d="
M409.337158,525.891846 
	C409.250824,525.671631 409.342499,525.353333 409.712219,525.089966 
	C409.895203,525.407532 409.736816,525.623779 409.337158,525.891846 
z"/>
<path fill="#060606" opacity="1.000000" stroke="none" 
	d="
M428.871460,321.622803 
	C428.651245,321.721405 428.314697,321.641479 428.007385,321.281921 
	C428.319092,321.079742 428.558563,321.227051 428.871460,321.622803 
z"/>
<path fill="#060606" opacity="1.000000" stroke="none" 
	d="
M283.408508,212.902664 
	C283.038635,212.616989 283.120819,212.342407 283.741699,212.231735 
	C283.882660,212.514801 283.742767,212.687500 283.408508,212.902664 
z"/>
<path fill="#060606" opacity="1.000000" stroke="none" 
	d="
M385.264282,343.001282 
	C385.345459,342.817047 385.601471,342.633606 385.823181,342.726105 
	C385.788879,343.002045 385.439148,343.002045 385.264282,343.001282 
z"/>
<path fill="#060606" opacity="1.000000" stroke="none" 
	d="
M188.880096,172.075897 
	C188.728119,172.319214 188.178635,172.531082 187.657578,172.374573 
	C187.951523,172.018936 188.217056,172.031693 188.880096,172.075897 
z"/>
<path fill="#080808" opacity="1.000000" stroke="none" 
	d="
M276.793182,353.369812 
	C281.299988,361.810577 281.066528,369.850586 275.308411,376.984772 
	C270.188385,383.328400 263.119568,385.238861 255.116943,383.252563 
	C246.522430,381.119354 241.501617,375.306152 240.653809,366.478516 
	C239.784164,357.423492 244.144089,349.482971 251.855240,346.077850 
	C259.660126,342.631317 269.208466,344.521942 274.806213,350.654083 
	C275.475006,351.386688 276.005035,352.245911 276.793182,353.369812 
z"/>
<path fill="#060606" opacity="1.000000" stroke="none" 
	d="
M98.136093,328.626160 
	C98.378990,327.806976 98.622017,327.380646 98.865044,326.954285 
	C99.226295,327.633881 99.587547,328.313446 99.948799,328.993042 
	C99.344612,329.001709 98.740417,329.010376 98.136093,328.626160 
z"/>
<path fill="#0B0B0B" opacity="1.000000" stroke="none" 
	d="
M424.004883,508.121887 
	C419.187012,508.121887 414.867371,508.121887 410.575348,508.121887 
	C409.737823,501.310944 414.959015,495.911804 422.931396,495.004822 
	C432.204559,493.949860 440.697815,498.938690 440.888550,508.121887 
	C435.425171,508.121887 429.964142,508.121887 424.004883,508.121887 
z"/>
<path fill="#080808" opacity="1.000000" stroke="none" 
	d="
M124.236832,455.606628 
	C131.439163,460.150085 131.843124,466.906708 130.912094,473.871735 
	C130.044159,480.364868 125.638771,484.402222 119.588730,485.684204 
	C113.056992,487.068298 106.281441,487.301727 99.298523,488.071716 
	C99.298523,475.455414 99.298523,464.048676 99.298523,452.215515 
	C107.764412,451.907257 116.155396,450.916046 124.236832,455.606628 
z"/>
<path fill="#080808" opacity="1.000000" stroke="none" 
	d="
M554.259155,356.007935 
	C557.318848,364.353516 556.445496,371.795441 550.498108,378.047089 
	C545.126526,383.693512 538.399902,385.123596 530.870483,383.146515 
	C522.333496,380.904816 517.199158,374.529785 516.829224,365.520752 
	C516.437622,355.984436 521.144836,348.529541 529.427246,345.569031 
	C537.581543,342.654266 547.015625,345.240143 551.874268,351.797455 
	C552.750427,352.979950 553.355652,354.363220 554.259155,356.007935 
z"/>
<path fill="#080808" opacity="1.000000" stroke="none" 
	d="
M307.357056,520.955383 
	C306.170105,532.397400 299.773895,539.330688 290.093140,540.084534 
	C279.452362,540.913147 271.359375,535.741821 268.997742,526.604797 
	C265.860809,514.468140 272.533051,502.797577 283.909515,501.132996 
	C298.856384,498.945953 307.586517,509.347412 307.357056,520.955383 
z"/>
<path fill="#080808" opacity="1.000000" stroke="none" 
	d="
M294.947693,182.646774 
	C306.616302,180.764771 314.286896,185.664200 314.869446,195.199188 
	C304.777985,195.199188 294.697998,195.199188 284.625092,195.199188 
	C283.915588,189.095200 287.251343,184.953476 294.947693,182.646774 
z"/>
</svg>